<svg xmlns="http://www.w3.org/2000/svg" width="105" height="109" fill="none"><g clip-path="url(#a)"><circle cx="52.5" cy="56.5" r="52.5" fill="url(#b)"/><path fill="#126B60" fill-rule="evenodd" d="M79.415 54.605a181.187 181.187 0 0 0-14.83 0 2 2 0 0 1-.17-3.996 185.17 185.17 0 0 1 15.17 0 2 2 0 0 1-.17 3.996Zm-28.477 9.34c-.04.06-.158.248-.313.659-.186.492-.372 1.158-.547 1.996-.302 1.445-.546 3.27-.726 5.337.886.662 2.105 1.282 3.583 1.84 1.862.703 3.97 1.244 5.982 1.654 2.006.408 3.876.676 5.246.842l.102.012c.037-.903.094-1.767.173-2.53.07-.679.162-1.323.282-1.859.06-.266.135-.549.237-.815.083-.218.26-.64.618-1.003.494-.502 1.146-.727 1.496-.835.44-.135.939-.235 1.44-.31 1.01-.153 2.222-.234 3.409-.245 1.185-.01 2.415.047 3.459.195a9.577 9.577 0 0 1 1.51.323c.403.128 1.04.369 1.536.872.34.346.526.74.626.988.113.279.197.573.262.85.13.555.222 1.21.29 1.893.075.754.125 1.6.153 2.481l.086-.01a66.203 66.203 0 0 0 5.243-.828c2.012-.406 4.118-.946 5.977-1.65 1.481-.56 2.701-1.187 3.586-1.857-.179-2.07-.423-3.898-.726-5.344-.175-.839-.361-1.505-.547-1.997-.155-.41-.273-.6-.313-.659a2.496 2.496 0 0 0-.359-.17 10.305 10.305 0 0 0-1.447-.43c-1.258-.294-2.947-.55-4.962-.76-4.018-.419-9.142-.631-14.294-.631-5.152 0-10.276.212-14.294.63-2.015.21-3.704.467-4.962.761-.63.148-1.109.294-1.447.43-.213.086-.32.147-.359.17Zm43.983 12.52a23.2 23.2 0 0 1-2.443 1.078c-2.134.808-4.469 1.4-6.602 1.83a70.22 70.22 0 0 1-6.139.945c-.038.977-.102 1.91-.19 2.722-.07.647-.161 1.26-.28 1.775a5.752 5.752 0 0 1-.235.787c-.083.214-.259.62-.607.974-.494.502-1.145.727-1.496.835-.44.135-.939.235-1.44.31-1.01.153-2.222.234-3.409.245-1.185.01-2.415-.047-3.459-.195a9.566 9.566 0 0 1-1.51-.323c-.403-.128-1.04-.369-1.536-.872a2.983 2.983 0 0 1-.614-.958 5.6 5.6 0 0 1-.26-.82 14.29 14.29 0 0 1-.29-1.808 36.783 36.783 0 0 1-.169-2.68 71.472 71.472 0 0 1-6.122-.96c-2.132-.433-4.464-1.026-6.597-1.83a23.54 23.54 0 0 1-2.443-1.073c-.152 4.063-.087 6.435.197 10.23.184 2.463.456 4.633.805 6.295.175.832.36 1.494.545 1.982.177.468.305.644.324.67l.002.004c.128.13.486.379 1.231.668.71.275 1.62.53 2.693.757 2.145.456 4.752.769 7.315.98a131.489 131.489 0 0 0 7.808.393v-5.1a2 2 0 1 1 4 0v5.1l.98-.025c1.82-.053 4.276-.158 6.828-.368 2.563-.212 5.17-.524 7.315-.98 1.073-.228 1.983-.482 2.693-.757.745-.289 1.103-.539 1.23-.669l.003-.002c.019-.027.147-.203.324-.671.184-.488.37-1.15.545-1.982.349-1.662.621-3.832.805-6.295.283-3.789.35-6.154.198-10.212ZM72 102.454h-.06l-.166-.001-.626-.006a142.94 142.94 0 0 1-2.242-.048 135.162 135.162 0 0 1-7.041-.38c-2.634-.217-5.433-.546-7.818-1.053-1.192-.253-2.327-.561-3.307-.941-.945-.366-1.921-.865-2.636-1.59-.573-.582-.95-1.359-1.217-2.066-.283-.748-.519-1.626-.718-2.575-.4-1.9-.689-4.263-.88-6.82-.382-5.117-.384-9.207-.005-14.332.19-2.57.48-4.948.88-6.86.2-.955.436-1.838.72-2.59.267-.71.645-1.49 1.22-2.075.499-.506 1.148-.83 1.703-1.054.593-.238 1.285-.44 2.028-.613 1.49-.348 3.364-.626 5.457-.844 4.198-.437 9.468-.652 14.709-.652s10.511.215 14.709.652c2.093.218 3.968.496 5.457.844.744.174 1.435.375 2.029.613.554.223 1.203.548 1.702 1.054.575.584.953 1.365 1.22 2.075.284.752.52 1.635.72 2.59.4 1.912.69 4.29.88 6.86.379 5.125.377 9.215-.005 14.333-.191 2.556-.48 4.918-.88 6.82-.2.948-.435 1.826-.718 2.574-.267.707-.644 1.484-1.217 2.065-.715.726-1.69 1.225-2.636 1.591-.98.38-2.115.688-3.307.941-2.384.507-5.184.836-7.818 1.053-2.645.218-5.175.326-7.04.38a142.94 142.94 0 0 1-2.869.054l-.166.001h-.062ZM68.58 72.982c.147-.031.322-.064.527-.094.78-.118 1.797-.19 2.85-.2 1.054-.01 2.074.044 2.861.155.254.036.463.075.628.114.064.307.125.726.177 1.248.118 1.188.17 2.72.157 4.272-.012 1.517-.087 2.996-.21 4.13-.047.432-.098.789-.15 1.065a8.71 8.71 0 0 1-.527.094c-.78.118-1.797.19-2.85.2-1.054.01-2.074-.044-2.861-.155a7.314 7.314 0 0 1-.628-.114 11.93 11.93 0 0 1-.165-1.126c-.117-1.12-.175-2.574-.171-4.072.004-1.57.075-3.129.2-4.331.05-.484.105-.882.162-1.186Zm.074 11.099a.133.133 0 0 1 .002.005l-.002-.005Zm6.651.068a.179.179 0 0 1 .003-.008l-.003.008Zm.041-11.576c-.008-.017-.008-.02-.002-.004l.002.004Zm-6.654-.06.003-.008a.178.178 0 0 1-.003.008Z" clip-rule="evenodd"/><path fill="#126B60" fill-rule="evenodd" d="M24.742 5.062v13.655a2.16 2.16 0 1 1-4.32 0V5.618c-1.881.333-3.619.773-5.139 1.312a2.16 2.16 0 0 1-1.443-4.072c2.524-.894 5.437-1.517 8.48-1.888a60.429 60.429 0 0 1 14.283 0c3.043.371 5.956.994 8.48 1.889a2.16 2.16 0 1 1-1.444 4.071c-1.52-.539-3.257-.978-5.138-1.312v13.1a2.16 2.16 0 0 1-4.32 0V5.061a56.881 56.881 0 0 0-9.44 0ZM6.887 30.447a2.606 2.606 0 0 0-.127.26c-.128.295-.27.72-.414 1.286-.288 1.131-.544 2.65-.753 4.472-.418 3.63-.63 13.246-.63 17.896 0 4.649.212 9.265.63 12.896.21 1.82.465 3.34.753 4.471.145.567.286.99.414 1.287.055.127.099.21.127.259.056.028.157.075.317.135.359.133.87.277 1.546.422 1.348.288 3.163.54 5.328.746 4.32.41 9.837.617 15.383.617 2.546 0 5.089-.044 7.516-.131a2.16 2.16 0 0 1 .155 4.317c-2.482.09-5.077.134-7.67.134-5.634 0-11.296-.21-15.792-.637-2.242-.212-4.243-.483-5.824-.822-.79-.169-1.52-.364-2.147-.597-.574-.213-1.28-.535-1.823-1.064-.51-.495-.847-1.123-1.082-1.666a13.113 13.113 0 0 1-.634-1.932c-.356-1.396-.638-3.13-.859-5.046C.86 63.909.642 59.119.642 54.36c0-4.757.217-14.547.66-18.39.22-1.915.502-3.649.858-5.045a13.11 13.11 0 0 1 .634-1.931c.235-.544.572-1.172 1.082-1.667.543-.529 1.25-.851 1.823-1.064.626-.233 1.358-.429 2.147-.597 1.58-.339 3.582-.61 5.824-.823 4.496-.426 10.158-.636 15.791-.636 5.634 0 11.295.21 15.791.637 2.242.212 4.243.483 5.825.822.788.168 1.52.364 2.146.597.574.213 1.28.535 1.823 1.064.78.757 1.221 1.901 1.512 2.862.322 1.065.585 2.364.8 3.794.434 2.869.71 11.483.838 15.286a2.16 2.16 0 0 1-4.318.146c-.125-3.712-.392-12.145-.79-14.787-.2-1.326-.427-2.4-.665-3.189-.186-.613-.334-.896-.385-.99a3.084 3.084 0 0 0-.32-.137c-.359-.133-.87-.277-1.546-.422-1.348-.289-3.163-.54-5.328-.746-4.319-.41-9.837-.617-15.383-.617-5.546 0-11.064.208-15.383.617-2.165.206-3.98.457-5.328.746-.676.145-1.187.289-1.546.422-.16.06-.26.107-.317.135Zm4.957 8.164a2.16 2.16 0 0 1 2.448-1.828c4.57.663 8.148.996 15.17.996 7.021 0 10.599-.333 15.169-.996a2.16 2.16 0 0 1 .62 4.276c-4.783.694-8.568 1.04-15.79 1.04-7.221 0-11.006-.346-15.79-1.04a2.16 2.16 0 0 1-1.827-2.448Z" clip-rule="evenodd"/></g><defs><linearGradient id="b" x1="17.5" x2="92" y1="-3" y2="105" gradientUnits="userSpaceOnUse"><stop stop-color="#B4FFE9"/><stop offset="1" stop-color="#98FFA9" stop-opacity=".2"/></linearGradient><clipPath id="a"><path fill="#fff" d="M0 0h105v56c0 29.271-23.729 53-53 53H0V0Z"/></clipPath></defs></svg>