<svg width="105" height="105" viewBox="0 0 105 105" fill="none" xmlns="http://www.w3.org/2000/svg">
<circle cx="52.5" cy="52.5" r="52.5" fill="url(#paint0_linear_2_1117)"/>
<path d="M49.4229 74.6704C47.2232 74.5237 46.1234 74.4504 45.7722 75.3207C45.4211 76.1909 46.0829 76.7643 47.4066 77.9109C48.9099 79.2133 50.8634 80 52.9986 80C55.1341 80 57.0878 79.2131 58.5912 77.9105C59.9145 76.7639 60.5762 76.1907 60.225 75.3204C59.8738 74.4502 58.7742 74.5236 56.575 74.6703C55.5399 74.7393 54.3426 74.786 52.9978 74.786C51.6538 74.786 50.4574 74.7394 49.4229 74.6704Z" fill="#126B60"/>
<path fill-rule="evenodd" clip-rule="evenodd" d="M53 26C47.8147 26 43.0208 27.7829 39.5092 31.1539C35.9821 34.5396 33.8706 39.4119 33.8706 45.3344V46.9792C33.8706 50.5268 33.1892 52.879 32.3435 54.4373C32.1428 54.807 31.9201 55.2063 31.6919 55.6155C31.3245 56.2742 30.9423 56.9594 30.615 57.5878C30.0687 58.6367 29.5397 59.7732 29.246 60.8952C28.953 62.0147 28.8357 63.341 29.3883 64.6187C29.9595 65.9394 31.0808 66.8343 32.4984 67.4048C37.5283 69.429 44.8978 70.6584 53 70.6584C61.1022 70.6584 68.4717 69.429 73.5016 67.4048C74.9192 66.8343 76.0405 65.9394 76.6117 64.6187C77.1643 63.341 77.047 62.0147 76.754 60.8951C76.4603 59.7732 75.9313 58.6367 75.385 57.5878C75.0576 56.9593 74.6758 56.2747 74.3083 55.6158C74.08 55.2066 73.8572 54.807 73.6565 54.4373C72.8108 52.879 72.1294 50.5268 72.1294 46.9792V45.3344C72.1294 39.4119 70.0179 34.5396 66.4908 31.1539C62.9792 27.7829 58.1853 26 53 26ZM37.7404 45.3343C37.7404 40.3948 39.4781 36.5775 42.1745 33.9891C44.8862 31.386 48.6897 29.9103 53.001 29.9103C57.3122 29.9103 61.1157 31.386 63.8275 33.9891C66.5238 36.5775 68.2615 40.3948 68.2615 45.3343V46.9791C68.2615 51.0301 69.041 54.0617 70.2654 56.3179C70.5176 56.7824 70.7586 57.2139 70.9914 57.6306C71.3293 58.2354 71.6502 58.8098 71.9624 59.4092C72.4742 60.3918 72.836 61.2122 73.0147 61.8951C73.1941 62.5803 73.1307 62.9068 73.0676 63.0525C73.0232 63.1553 72.8594 63.4547 72.0714 63.7718C67.6385 65.5557 60.7929 66.748 53.001 66.748C45.209 66.748 38.3634 65.5557 33.9306 63.7718C33.1425 63.4547 32.9787 63.1553 32.9343 63.0525C32.8712 62.9068 32.8078 62.5803 32.9872 61.8951C33.1659 61.2122 33.5277 60.3918 34.0395 59.4092C34.3516 58.81 34.6722 58.2362 35.0099 57.6316C35.2428 57.2148 35.4843 56.7825 35.7365 56.3179C36.9609 54.0617 37.7404 51.0301 37.7404 46.9791V45.3343Z" fill="#126B60"/>
<defs>
<linearGradient id="paint0_linear_2_1117" x1="17.5" y1="-7" x2="92" y2="101" gradientUnits="userSpaceOnUse">
<stop stop-color="#B4FFE9"/>
<stop offset="1" stop-color="#98FFA9" stop-opacity="0.2"/>
</linearGradient>
</defs>
</svg>
