<svg width="28" height="35" viewBox="0 0 28 35" fill="none" xmlns="http://www.w3.org/2000/svg">
<path d="M2.39514 25.5367C1.6372 22.4569 1.25823 20.917 2.05405 19.8816C2.84988 18.8462 4.41241 18.8462 7.53747 18.8462H20.4627C23.5878 18.8462 25.1503 18.8462 25.9461 19.8816C26.7419 20.917 26.363 22.4569 25.605 25.5367C25.123 27.4955 24.8819 28.475 24.163 29.0452C23.4441 29.6154 22.4503 29.6154 20.4627 29.6154H7.53747C5.54988 29.6154 4.55608 29.6154 3.83716 29.0452C3.11823 28.475 2.8772 27.4955 2.39514 25.5367Z" fill="#4C6D86"/>
<path d="M8.69953 33.6538C8.69953 32.9104 9.29282 32.3077 10.0247 32.3077H17.9756C18.7074 32.3077 19.3007 32.9104 19.3007 33.6538C19.3007 34.3973 18.7074 35 17.9756 35H10.0247C9.29282 35 8.69953 34.3973 8.69953 33.6538Z" fill="#4C6D86"/>
<path d="M21.9509 0C24.4496 0 25.699 0 26.4752 0.788559C26.9181 1.23843 27.1083 1.84473 27.19 2.75387C27.248 3.39909 27.277 3.7217 27.1045 3.89967C26.9321 4.07765 26.5332 4.04719 25.7354 3.98627C22.7798 3.76062 20.0492 6.12673 20.0492 9.36131V13.4615C20.0492 14.7307 20.0492 15.3653 19.6611 15.7596C19.273 16.1538 18.6483 16.1538 17.3989 16.1538H10.6011C9.35171 16.1538 8.72703 16.1538 8.3389 15.7596C7.95077 15.3653 7.95077 14.7307 7.95077 13.4615L7.95077 9.36131C7.95077 6.12673 5.22016 3.76062 2.2646 3.98627C1.46678 4.04719 1.06787 4.07765 0.895453 3.89967C0.723041 3.7217 0.75203 3.39909 0.810008 2.75387C0.891701 1.84473 1.08191 1.23843 1.52476 0.788559C2.30102 0 3.55038 0 6.0491 0H21.9509Z" fill="#4C6D86"/>
<path d="M22.6994 9.36115V14.3824C22.6994 14.839 22.6994 15.0673 22.746 15.241C22.8603 15.6677 23.0976 15.9461 23.4969 16.1222C23.6594 16.1938 23.9253 16.2329 24.457 16.311C24.7941 16.3606 25.1478 16.4311 25.5046 16.5368C26.8855 16.946 27.5759 17.1506 27.788 16.9891C28 16.8275 28 16.2549 28 15.1095V9.36115C28 8.26025 27.3402 7.27027 26.334 6.86141C24.5931 6.15401 22.6994 7.45644 22.6994 9.36115Z" fill="#4C6D86"/>
<path d="M5.3006 9.36115V14.3824C5.3006 14.839 5.3006 15.0673 5.25403 15.241C5.13966 15.6677 4.90239 15.9461 4.50311 16.1222C4.34056 16.1938 4.07469 16.2329 3.54295 16.311C3.20589 16.3606 2.85216 16.4311 2.49538 16.5368C1.1145 16.946 0.424062 17.1506 0.212031 16.9891C0 16.8275 0 16.2549 0 15.1095V9.36115C0 8.26025 0.659794 7.27027 1.666 6.86141C3.40689 6.15401 5.3006 7.45644 5.3006 9.36115Z" fill="#4C6D86"/>
</svg>
