<svg width="28" height="21" viewBox="0 0 28 21" fill="none" xmlns="http://www.w3.org/2000/svg">
<path d="M27.4736 9.82968C27.0912 9.36107 26.5129 9.07516 25.8372 8.88824C25.1578 8.70028 24.3815 8.61319 23.611 8.54747C23.4501 8.53374 23.2839 8.52063 23.1187 8.5076C22.5143 8.45993 21.9295 8.41307 21.4422 8.33308C21.1518 8.28542 20.8535 8.22211 20.5813 8.11664C20.309 8.01113 20.1123 7.88213 19.9828 7.73418C19.7164 7.4298 19.6846 7.08797 19.7577 6.68821C19.8088 6.40894 19.9286 6.04948 20.0624 5.65661L20.0645 5.65033C20.1039 5.53458 20.145 5.41384 20.1803 5.30375C20.5145 4.26022 20.7825 2.97936 19.9806 1.44569C19.617 0.750112 19.1259 0.378037 18.6375 0.186972C18.2729 0.0443268 17.9006 -0.00103901 17.5697 1.79754e-05C17.2644 0.000993262 16.9737 0.134169 16.7693 0.366692C16.5649 0.599215 16.4659 0.909434 16.4966 1.22082C16.8006 4.29669 15.3065 6.20484 14.303 7.11904C13.7903 7.5862 13.0934 7.78603 12.4282 7.94793C11.919 8.07187 11.3139 8.26809 10.8373 8.56689C10.6075 8.71099 10.3976 8.88151 10.2436 9.0991C10.0714 9.3424 9.99727 9.60536 10.0001 9.85308L10 19.2332C10 19.7695 10.3744 20.2289 10.8892 20.3245C11.4031 20.4199 12.095 20.5216 12.9294 20.6168C14.3322 20.7768 16.0382 20.9083 17.7325 20.9669C19.4276 21.0257 21.107 21.0114 22.4581 20.8813C23.1337 20.8162 23.7234 20.7224 24.1905 20.5957C24.4253 20.532 24.6011 20.4673 24.7335 20.4084C24.7645 20.3947 24.7924 20.3815 24.8175 20.3692C24.9483 20.3139 25.0706 20.2313 25.1761 20.1213L25.178 20.1193C25.5664 19.7135 26.0033 18.9899 26.4151 18.1008C26.8271 17.211 27.2131 16.1578 27.5009 15.095C27.7887 14.0327 27.9789 12.9591 27.9983 12.0293C28.0089 11.5282 27.9689 11.1073 27.8901 10.7599C27.8159 10.433 27.6903 10.0953 27.4736 9.82968Z" fill="white"/>
<path d="M0.585786 8.58579C0 9.17157 0 10.1144 0 12V17C0 18.8856 0 19.8284 0.585786 20.4142C1.17157 21 2.11438 21 4 21C5.88562 21 6.82843 21 7.41421 20.4142C8 19.8284 8 18.8856 8 17V12C8 10.1144 8 9.17157 7.41421 8.58579C6.82843 8 5.88562 8 4 8C2.11438 8 1.17157 8 0.585786 8.58579Z" fill="white"/>
</svg>
